<svg width="92" height="92" viewBox="0 0 92 92" fill="none" xmlns="http://www.w3.org/2000/svg">
<path fill-rule="evenodd" clip-rule="evenodd" d="M45.9998 15.3333C29.0631 15.3333 15.3332 29.0633 15.3332 46C15.3332 62.9367 29.0631 76.6667 45.9998 76.6667C62.9366 76.6667 76.6665 62.9367 76.6665 46C76.6665 29.0633 62.9366 15.3333 45.9998 15.3333ZM7.6665 46C7.6665 24.8291 24.8289 7.66666 45.9998 7.66666C67.1708 7.66666 84.3332 24.8291 84.3332 46C84.3332 67.1709 67.1708 84.3333 45.9998 84.3333C24.8289 84.3333 7.6665 67.1709 7.6665 46ZM43.2893 37.2106C41.7923 35.7136 41.7923 33.2864 43.2893 31.7894C44.7863 30.2924 47.2134 30.2924 48.7104 31.7894L60.2104 43.2894C61.7074 44.7864 61.7074 47.2136 60.2104 48.7106L48.7104 60.2106C47.2134 61.7076 44.7863 61.7076 43.2893 60.2106C41.7923 58.7136 41.7923 56.2864 43.2893 54.7894L48.2454 49.8333H34.4998C32.3827 49.8333 30.6665 48.1171 30.6665 46C30.6665 43.8829 32.3827 42.1667 34.4998 42.1667H48.2454L43.2893 37.2106Z" fill="black"/>
</svg>
