<svg width="92" height="92" viewBox="0 0 92 92" fill="none" xmlns="http://www.w3.org/2000/svg">
<path fill-rule="evenodd" clip-rule="evenodd" d="M46.0002 15.3333C62.9369 15.3333 76.6668 29.0633 76.6668 46C76.6668 62.9367 62.9369 76.6667 46.0002 76.6667C29.0634 76.6667 15.3335 62.9367 15.3335 46C15.3335 29.0633 29.0634 15.3333 46.0002 15.3333ZM84.3335 46C84.3335 24.8291 67.1711 7.66666 46.0002 7.66666C24.8292 7.66666 7.66682 24.8291 7.66682 46C7.66682 67.1709 24.8292 84.3333 46.0002 84.3333C67.1711 84.3333 84.3335 67.1709 84.3335 46ZM48.7107 37.2106C50.2077 35.7136 50.2077 33.2864 48.7107 31.7894C47.2137 30.2924 44.7866 30.2924 43.2896 31.7894L31.7896 43.2894C30.2926 44.7864 30.2926 47.2136 31.7896 48.7106L43.2896 60.2106C44.7866 61.7076 47.2137 61.7076 48.7107 60.2106C50.2077 58.7136 50.2077 56.2864 48.7107 54.7894L43.7546 49.8333H57.5002C59.6173 49.8333 61.3335 48.1171 61.3335 46C61.3335 43.8829 59.6173 42.1667 57.5002 42.1667H43.7546L48.7107 37.2106Z" fill="black"/>
</svg>
