<svg width="78" height="78" viewBox="0 0 78 78" fill="none" xmlns="http://www.w3.org/2000/svg">
<path fill-rule="evenodd" clip-rule="evenodd" d="M39 8.33333C22.0633 8.33333 8.33332 22.0633 8.33332 39C8.33332 55.9367 22.0633 69.6667 39 69.6667C55.9367 69.6667 69.6667 55.9367 69.6667 39C69.6667 22.0633 55.9367 8.33333 39 8.33333ZM0.666656 39C0.666656 17.8291 17.8291 0.666668 39 0.666668C60.1709 0.666668 77.3333 17.8291 77.3333 39C77.3333 60.1709 60.1709 77.3333 39 77.3333C17.8291 77.3333 0.666656 60.1709 0.666656 39ZM41.7106 24.7894C43.2076 26.2864 43.2076 28.7136 41.7106 30.2106L36.7545 35.1667H50.5C52.6171 35.1667 54.3333 36.8829 54.3333 39C54.3333 41.1171 52.6171 42.8333 50.5 42.8333H36.7545L41.7106 47.7894C43.2076 49.2864 43.2076 51.7136 41.7106 53.2106C40.2136 54.7076 37.7864 54.7076 36.2894 53.2106L24.7894 41.7106C23.2924 40.2136 23.2924 37.7864 24.7894 36.2894L36.2894 24.7894C37.7864 23.2924 40.2136 23.2924 41.7106 24.7894Z" fill="white"/>
</svg>
