<svg width="78" height="78" viewBox="0 0 78 78" fill="none" xmlns="http://www.w3.org/2000/svg">
<path fill-rule="evenodd" clip-rule="evenodd" d="M39 8.33333C22.0633 8.33333 8.33335 22.0633 8.33335 39C8.33335 55.9367 22.0633 69.6667 39 69.6667C55.9368 69.6667 69.6667 55.9367 69.6667 39C69.6667 22.0633 55.9368 8.33333 39 8.33333ZM0.666687 39C0.666687 17.8291 17.8291 0.666668 39 0.666668C60.1709 0.666668 77.3334 17.8291 77.3334 39C77.3334 60.1709 60.1709 77.3333 39 77.3333C17.8291 77.3333 0.666687 60.1709 0.666687 39ZM36.2894 30.2106C34.7924 28.7136 34.7924 26.2864 36.2894 24.7894C37.7865 23.2924 40.2136 23.2924 41.7106 24.7894L53.2106 36.2894C54.7076 37.7864 54.7076 40.2136 53.2106 41.7106L41.7106 53.2106C40.2136 54.7076 37.7865 54.7076 36.2894 53.2106C34.7924 51.7136 34.7924 49.2864 36.2894 47.7894L41.2455 42.8333H27.5C25.3829 42.8333 23.6667 41.1171 23.6667 39C23.6667 36.8829 25.3829 35.1667 27.5 35.1667H41.2455L36.2894 30.2106Z" fill="white"/>
</svg>
